<?xml version="1.0" standalone="no"?>
<!DOCTYPE svg PUBLIC "-//W3C//DTD SVG 20010904//EN"
 "http://www.w3.org/TR/2001/REC-SVG-20010904/DTD/svg10.dtd">
<svg version="1.0" xmlns="http://www.w3.org/2000/svg"
 width="640.000000pt" height="640.000000pt" viewBox="0 0 640.000000 640.000000"
 preserveAspectRatio="xMidYMid meet">

<g transform="translate(0.000000,640.000000) scale(0.100000,-0.100000)"
fill="#000000" stroke="none">
<path d="M2408 5221 c-31 -10 -79 -31 -105 -46 -31 -18 -333 -312 -874 -854
-895 -896 -866 -863 -903 -1012 -20 -82 -20 -136 0 -218 37 -148 8 -116 903
-1012 871 -872 866 -867 995 -904 81 -24 229 -17 308 14 120 46 232 159 279
279 15 40 24 86 27 154 5 113 -16 199 -69 283 -17 28 -200 220 -407 428 l-377
377 1630 0 c1419 0 1638 2 1694 15 246 58 410 298 372 545 -30 202 -193 374
-390 410 -34 6 -640 10 -1680 10 l-1626 0 377 378 c207 207 390 400 407 427
53 84 74 170 69 283 -6 118 -30 188 -96 275 -57 75 -149 139 -238 167 -85 26
-216 26 -296 1z"/>
</g>
</svg>
