<?xml version="1.0" standalone="no"?>
<!DOCTYPE svg PUBLIC "-//W3C//DTD SVG 20010904//EN"
 "http://www.w3.org/TR/2001/REC-SVG-20010904/DTD/svg10.dtd">
<svg version="1.0" xmlns="http://www.w3.org/2000/svg"
 width="640.000000pt" height="640.000000pt" viewBox="0 0 640.000000 640.000000"
 preserveAspectRatio="xMidYMid meet">

<g transform="translate(0.000000,640.000000) scale(0.100000,-0.100000)"
fill="#000000" stroke="none">
<path d="M3693 5220 c-132 -43 -254 -158 -304 -287 -33 -86 -38 -230 -11 -320
12 -37 35 -90 53 -118 17 -27 200 -220 407 -427 l377 -378 -1626 0 c-1040 0
-1646 -4 -1680 -10 -197 -36 -360 -208 -390 -410 -38 -247 126 -487 372 -545
56 -13 275 -15 1694 -15 l1630 0 -377 -377 c-207 -208 -390 -400 -407 -428
-53 -84 -74 -170 -69 -283 3 -68 12 -114 27 -154 47 -120 159 -233 279 -279
79 -31 227 -38 308 -14 129 37 124 32 995 904 895 896 866 864 903 1012 20 82
20 136 0 218 -36 148 -11 119 -878 989 -441 442 -827 823 -859 847 -87 66
-152 88 -277 92 -85 2 -117 -1 -167 -17z"/>
</g>
</svg>
